<svg width="30" height="30" viewBox="0 0 30 30" fill="none" xmlns="http://www.w3.org/2000/svg">
<g id="Iconly/Bulk/Camera">
<circle id="Ellipse 8" cx="15" cy="15" r="14" fill="#E0E0E0" stroke="#006A55" stroke-width="2"/>
<g id="Camera">
<path id="Combined Shape" fill-rule="evenodd" clip-rule="evenodd" d="M18.925 13.3935C18.925 13.8097 19.2583 14.1426 19.675 14.1426C20.0917 14.1426 20.4333 13.8097 20.4333 13.3935C20.4333 12.9773 20.0917 12.636 19.675 12.636C19.2583 12.636 18.925 12.9773 18.925 13.3935ZM17.3083 18.4212C16.7167 19.0122 15.9 19.3785 15 19.3785C14.125 19.3785 13.3083 19.0372 12.6833 18.4212C12.0667 17.7969 11.725 16.9812 11.725 16.1071C11.7167 15.2414 12.0583 14.4257 12.675 13.8014C13.3 13.177 14.125 12.8358 15 12.8358C15.875 12.8358 16.7 13.177 17.3167 13.793C17.9333 14.4173 18.275 15.2414 18.275 16.1071C18.2667 17.0145 17.9 17.8302 17.3083 18.4212ZM15 14.0844C14.4583 14.0844 13.95 14.2925 13.5583 14.6837C13.175 15.0666 12.9667 15.5744 12.975 16.0988V16.1071C12.975 16.6482 13.1833 17.156 13.5667 17.5389C13.95 17.9218 14.4583 18.1299 15 18.1299C16.1167 18.1299 17.0167 17.2226 17.025 16.1071C17.025 15.5661 16.8167 15.0583 16.4333 14.6754C16.05 14.2925 15.5417 14.0844 15 14.0844Z" fill="#18262C"/>
<path id="Path" opacity="0.4" d="M19.5333 10.197L19.45 10.0139C19.225 9.5394 18.9666 8.99001 18.8083 8.6737C18.425 7.92453 17.7666 7.50832 16.9583 7.5H13.0333C12.225 7.50832 11.575 7.92453 11.1916 8.6737C11.025 9.00666 10.7416 9.60599 10.5083 10.0971L10.4583 10.197C10.4333 10.2636 10.3666 10.2969 10.3 10.2969C8.29163 10.2969 6.66663 11.9284 6.66663 13.9262V18.8707C6.66663 20.8685 8.29163 22.5 10.3 22.5H19.7C21.7 22.5 23.3333 20.8685 23.3333 18.8707V13.9262C23.3333 11.9284 21.7 10.2969 19.7 10.2969C19.625 10.2969 19.5666 10.2553 19.5333 10.197Z" fill="#18262C"/>
</g>
</g>
</svg>
