<svg width="19" height="17" viewBox="0 0 19 17" fill="none" xmlns="http://www.w3.org/2000/svg">
<path d="M4 1H1M4.24 1L6.4 8.84C6.58029 9.45825 6.95474 10.0021 7.46799 10.3911C7.98124 10.78 8.60603 10.9936 9.25 11H17.99V1H4.24ZM11 14.5C11 15.3284 10.3284 16 9.5 16C8.67157 16 8 15.3284 8 14.5C8 13.6716 8.67157 13 9.5 13C10.3284 13 11 13.6716 11 14.5ZM18 14.5C18 15.3284 17.3284 16 16.5 16C15.6716 16 15 15.3284 15 14.5C15 13.6716 15.6716 13 16.5 13C17.3284 13 18 13.6716 18 14.5Z" stroke="#68A397" stroke-linecap="round" stroke-linejoin="round"/>
</svg>
