<svg width="20" height="20" viewBox="0 0 20 20" fill="none" xmlns="http://www.w3.org/2000/svg">
<path fill-rule="evenodd" clip-rule="evenodd" d="M16.9992 7.62172L17.5994 8.22172C18.0746 8.68839 18.333 9.32172 18.333 9.98838C18.3414 10.6551 18.0829 11.2892 17.6161 11.7634C17.6106 11.7695 17.605 11.7749 17.5994 11.7802C17.5967 11.7829 17.5939 11.7856 17.5911 11.7884L16.9992 12.3801C16.7658 12.6134 16.6324 12.9301 16.6324 13.2642V14.1217C16.6324 15.5051 15.507 16.6309 14.1232 16.6309H13.2645C12.9311 16.6309 12.6143 16.7634 12.3809 16.9967L11.7807 17.5967C11.2888 18.0892 10.6469 18.3301 10.005 18.3301C9.36312 18.3301 8.72122 18.0892 8.22937 17.6059L7.62082 16.9967C7.3874 16.7634 7.07062 16.6309 6.73717 16.6309H5.87852C4.49469 16.6309 3.36928 15.5051 3.36928 14.1217V13.2642C3.36928 12.9301 3.2359 12.6134 3.00248 12.3717L2.40226 11.7801C1.42691 10.8059 1.41857 9.21338 2.39393 8.23088L3.00248 7.62172C3.2359 7.38838 3.36928 7.07172 3.36928 6.73005V5.88005C3.36928 4.49672 4.49469 3.37255 5.87852 3.37255H6.73717C7.07062 3.37255 7.3874 3.23838 7.62082 3.00505L8.22104 2.40505C9.19639 1.42255 10.7886 1.42255 11.7723 2.39755L12.3809 3.00505C12.6143 3.23838 12.9311 3.37255 13.2645 3.37255H14.1232C15.507 3.37255 16.6324 4.49672 16.6324 5.88005V6.73922C16.6324 7.07172 16.7658 7.38838 16.9992 7.62172ZM7.85425 12.8717C8.05432 12.8717 8.23772 12.7967 8.37111 12.655L12.656 8.37255C12.9394 8.08922 12.9394 7.62172 12.656 7.33838C12.3726 7.05588 11.9141 7.05588 11.6306 7.33838L7.34573 11.6217C7.0623 11.905 7.0623 12.3717 7.34573 12.655C7.47912 12.7967 7.66251 12.8717 7.85425 12.8717ZM11.4139 12.1384C11.4139 12.5467 11.739 12.8717 12.1475 12.8717C12.5476 12.8717 12.8727 12.5467 12.8727 12.1384C12.8727 11.7392 12.5476 11.4134 12.1475 11.4134C11.739 11.4134 11.4139 11.7392 11.4139 12.1384ZM7.86257 7.13004C8.26271 7.13004 8.58783 7.45504 8.58783 7.85504C8.58783 8.26421 8.26271 8.58838 7.86257 8.58838C7.46242 8.58838 7.12897 8.26421 7.12897 7.85504C7.12897 7.45504 7.46242 7.13004 7.86257 7.13004Z" fill="white"/>
</svg>
