<svg width="24" height="24" viewBox="0 0 24 24" fill="none" xmlns="http://www.w3.org/2000/svg">
<path d="M5.3 12.14H10.02M13.72 12.14H18.7M7.31 7.59996H16.69C17.8001 7.59996 18.7 8.49986 18.7 9.60996V18.99C18.7 20.1 17.8001 21 16.69 21H7.31C6.19991 21 5.3 20.1 5.3 18.99V9.60996C5.3 8.49986 6.19991 7.59996 7.31 7.59996ZM10.28 7.59996H13.73V21H10.28V7.59996ZM16.46 5.18996C16.46 5.78139 16.225 6.34859 15.8068 6.7668C15.3886 7.18501 14.8214 7.41995 14.23 7.41995H12.02V5.18996C12.02 4.59852 12.2549 4.03132 12.6731 3.61311C13.0913 3.19491 13.6586 2.95996 14.25 2.95996C14.838 2.96523 15.4001 3.2025 15.8139 3.62013C16.2278 4.03777 16.46 4.60197 16.46 5.18996ZM9.77 2.99996C10.3614 2.99996 10.9286 3.2349 11.3469 3.65311C11.7651 4.07131 12 4.63852 12 5.22996V7.46996H9.77C9.47547 7.47128 9.1836 7.41424 8.91123 7.30214C8.63886 7.19004 8.3914 7.02509 8.18313 6.81683C7.97486 6.60856 7.80992 6.3611 7.69782 6.08873C7.58571 5.81636 7.52868 5.52449 7.53 5.22996C7.53 4.93627 7.58801 4.64547 7.7007 4.37426C7.8134 4.10305 7.97855 3.85677 8.18669 3.64956C8.39482 3.44236 8.64184 3.2783 8.91355 3.16683C9.18526 3.05535 9.47632 2.99864 9.77 2.99996Z" stroke="#1C1C1E" stroke-linecap="round" stroke-linejoin="round"/>
</svg>
