<svg width="24" height="24" viewBox="0 0 24 24" fill="none" xmlns="http://www.w3.org/2000/svg">
<g clip-path="url(#clip0_728_2172)">
<mask id="mask0_728_2172" style="mask-type:alpha" maskUnits="userSpaceOnUse" x="0" y="0" width="24" height="24">
<rect width="24" height="24" fill="#C4C4C4"/>
</mask>
<g mask="url(#mask0_728_2172)">
<g opacity="0.4">
<path d="M19.75 5.91667V15.1042V18.75C19.75 20.3582 18.4416 21.6667 16.8333 21.6667H6.91667C5.30842 21.6667 4 20.3582 4 18.75V5.91667C4 4.30842 5.30842 3 6.91667 3H16.8333C18.4416 3 19.75 4.30842 19.75 5.91667Z" fill="#717171"/>
</g>
<path d="M19.0208 15.8333C19.4236 15.8333 19.75 15.5069 19.75 15.1042V5.91667C19.75 4.30842 18.4416 3 16.8333 3H6.91667C5.30842 3 4 4.30842 4 5.91667V18.75C4 20.3582 5.30842 21.6667 6.91667 21.6667H16.8333C18.4416 21.6667 19.75 20.3582 19.75 18.75C19.75 18.3473 19.4236 18.0208 19.0208 18.0208C18.6181 18.0208 18.2917 18.3473 18.2917 18.75C18.2917 19.5541 17.6375 20.2083 16.8333 20.2083H6.91667C6.11254 20.2083 5.45833 19.5541 5.45833 18.75V8.14062H7.97396C9.58221 8.14062 10.8906 6.83221 10.8906 5.22396V4.45833H16.8333C17.6375 4.45833 18.2917 5.11254 18.2917 5.91667V15.1042C18.2917 15.5069 18.6181 15.8333 19.0208 15.8333ZM9.43229 5.22396C9.43229 6.02808 8.77808 6.68229 7.97396 6.68229H5.45833V5.91667C5.45833 5.11254 6.11254 4.45833 6.91667 4.45833H9.43229V5.22396Z" fill="#717171"/>
<path d="M16.1042 7.01058C16.5069 7.01058 16.8333 6.68412 16.8333 6.28141C16.8333 5.87871 16.5069 5.55225 16.1042 5.55225C15.7015 5.55225 15.375 5.87871 15.375 6.28141C15.375 6.68412 15.7015 7.01058 16.1042 7.01058Z" fill="#717171"/>
<path d="M13.5521 7.01058C13.9548 7.01058 14.2813 6.68412 14.2813 6.28141C14.2813 5.87871 13.9548 5.55225 13.5521 5.55225C13.1494 5.55225 12.8229 5.87871 12.8229 6.28141C12.8229 6.68412 13.1494 7.01058 13.5521 7.01058Z" fill="#717171"/>
<path d="M7.35419 14.0104C7.35419 16.5233 9.39859 18.5677 11.9115 18.5677C14.4244 18.5677 16.4688 16.5233 16.4688 14.0104C16.4688 11.4975 14.4244 9.45312 11.9115 9.45312C9.39859 9.45312 7.35419 11.4975 7.35419 14.0104ZM11.9115 17.1094C10.3771 17.1094 9.1004 15.9882 8.85558 14.5223C9.3956 15.0055 9.95465 15.25 10.5238 15.25C11.2699 15.25 11.9986 14.8304 12.6899 14.0029C12.7241 13.962 12.7866 13.9375 12.8571 13.9375C12.9277 13.9375 12.9902 13.962 13.0244 14.0029C13.5854 14.6745 14.171 15.0773 14.7705 15.2053C14.3019 16.3225 13.1969 17.1094 11.9115 17.1094ZM14.9991 13.7562C14.7475 13.6705 14.4465 13.4306 14.1437 13.0681C13.8311 12.6938 13.3622 12.4792 12.8571 12.4792C12.3521 12.4792 11.8832 12.6938 11.5706 13.068C11.1865 13.5279 10.8049 13.7917 10.5238 13.7917C10.2427 13.7917 9.86113 13.5279 9.47701 13.068C9.36592 12.935 9.23471 12.8226 9.08946 12.7324C9.57727 11.6596 10.6583 10.9115 11.9115 10.9115C13.5346 10.9115 14.8693 12.166 14.9991 13.7562Z" fill="#717171"/>
</g>
</g>
<defs>
<clipPath id="clip0_728_2172">
<rect width="24" height="24" fill="white"/>
</clipPath>
</defs>
</svg>
