<svg width="24" height="24" viewBox="0 0 24 24" fill="none" xmlns="http://www.w3.org/2000/svg">
<g id="Iconly/Bulk/Discount">
<path id="Fill 1" opacity="0.4" d="M11.9991 21.9981C11.2301 21.9981 10.4621 21.7061 9.87508 21.1231L9.14508 20.3931C8.86208 20.1111 8.48308 19.9551 8.08108 19.9541H7.05408C5.39408 19.9541 4.04308 18.6031 4.04308 16.9431V15.9151C4.04208 15.5141 3.88608 15.1351 3.60308 14.8501L2.88508 14.1331C1.70908 12.9641 1.70408 11.0531 2.87408 9.87615L3.60408 9.14515C3.88608 8.86215 4.04208 8.48315 4.04308 8.08115V7.05515C4.04308 5.39415 5.39408 4.04315 7.05408 4.04315H8.08208C8.48308 4.04315 8.86108 3.88715 9.14608 3.60215L9.86508 2.88515C11.0341 1.70915 12.9441 1.70315 14.1221 2.87415L14.8521 3.60415C15.1361 3.88715 15.5141 4.04315 15.9151 4.04315H16.9431C18.6031 4.04315 19.9541 5.39415 19.9541 7.05515V8.08215C19.9551 8.48315 20.1111 8.86215 20.3941 9.14715L21.1121 9.86515C21.6811 10.4311 21.9961 11.1851 21.9991 11.9901C22.0011 12.7901 21.6931 13.5431 21.1321 14.1121C21.1221 14.1221 21.1131 14.1331 21.1031 14.1421L20.3931 14.8521C20.1111 15.1351 19.9551 15.5141 19.9541 15.9161V16.9431C19.9541 18.6031 18.6031 19.9541 16.9431 19.9541H15.9151C15.5141 19.9551 15.1351 20.1111 14.8511 20.3941L14.1321 21.1121C13.5461 21.7021 12.7721 21.9981 11.9991 21.9981Z" fill="#006A55"/>
<path id="Combined Shape" fill-rule="evenodd" clip-rule="evenodd" d="M10.0428 10.0508C9.87782 10.2158 9.66382 10.3048 9.42682 10.3048C9.20482 10.3048 8.98682 10.2138 8.81182 10.0498C8.64582 9.88483 8.55182 9.65883 8.55182 9.42983C8.55182 9.21183 8.64382 8.98783 8.80582 8.81483C8.89482 8.72483 9.00082 8.65683 9.10682 8.62083C9.40882 8.48283 9.80982 8.56383 10.0478 8.81383C10.1328 8.89883 10.1978 8.99183 10.2408 9.08883C10.2878 9.19283 10.3118 9.31083 10.3118 9.42983C10.3118 9.66783 10.2168 9.88883 10.0428 10.0508ZM15.1905 8.80973C14.8495 8.46973 14.2945 8.46973 13.9535 8.80973L8.81352 13.9497C8.47252 14.2907 8.47252 14.8457 8.81352 15.1877C8.97952 15.3527 9.19852 15.4437 9.43252 15.4437C9.66652 15.4437 9.88552 15.3527 10.0505 15.1877L15.1905 10.0477C15.5315 9.70573 15.5315 9.15173 15.1905 8.80973ZM14.9058 13.7638C14.5818 13.6278 14.1978 13.7018 13.9418 13.9578C13.8888 14.0198 13.8138 14.1158 13.7628 14.2288C13.7088 14.3508 13.7018 14.4818 13.7018 14.5698C13.7018 14.6578 13.7088 14.7878 13.7628 14.9098C13.8128 15.0218 13.8728 15.1128 13.9518 15.1918C14.1328 15.3598 14.3428 15.4448 14.5768 15.4448C14.7988 15.4448 15.0168 15.3548 15.1958 15.1878C15.3548 15.0288 15.4418 14.8088 15.4418 14.5698C15.4418 14.3298 15.3548 14.1108 15.1948 13.9508C15.1068 13.8638 15.0008 13.7958 14.9058 13.7638Z" fill="#006A55"/>
</g>
</svg>
