<svg width="9" height="14" viewBox="0 0 9 14" fill="none" xmlns="http://www.w3.org/2000/svg">
<g clip-path="url(#clip0_728_2057)">
<rect width="8.4" height="14" transform="translate(8.3999 14) rotate(-180)" fill="#006A55"/>
<path d="M0.339406 1.76842C0.142275 1.56842 0.032757 1.30526 0.043709 1.03158C0.043709 0.757894 0.153226 0.505262 0.36131 0.305262C0.558442 0.115788 0.832236 -1.61526e-06 1.11698 -1.59037e-06C1.40173 -1.56547e-06 1.67552 0.0947365 1.88361 0.28421L8.0823 6.2421C8.18087 6.33684 8.25753 6.45263 8.31229 6.57895C8.36705 6.70526 8.3999 6.8421 8.3999 6.97895C8.3999 7.11579 8.36705 7.25263 8.31229 7.38947C8.25753 7.51579 8.18087 7.63158 8.0823 7.72632L1.8836 13.6842C1.78504 13.7789 1.66457 13.8632 1.53315 13.9158C1.39077 13.9684 1.2484 14 1.10603 14C0.963656 14 0.810331 13.9789 0.67891 13.9263C0.547489 13.8737 0.427019 13.7895 0.317502 13.6947C0.218936 13.6 0.142274 13.4737 0.0875149 13.3474C0.0218039 13.2211 -9.91021e-05 13.0842 -9.90892e-05 12.9368C-9.90772e-05 12.8 0.032756 12.6632 0.087515 12.5368C0.142274 12.4105 0.229888 12.2947 0.339405 12.1895L5.76053 6.97895L4.73106 6L0.339406 1.76842Z" fill="white"/>
</g>
<defs>
<clipPath id="clip0_728_2057">
<rect width="8.4" height="14" fill="white" transform="translate(8.3999 14) rotate(-180)"/>
</clipPath>
</defs>
</svg>
