<svg width="357" height="187" viewBox="0 0 357 187" fill="none" xmlns="http://www.w3.org/2000/svg">
<g clip-path="url(#clip0_522_1850)">
<rect width="357" height="187" rx="10" fill="#006A55"/>
<circle cx="346" cy="-6" r="83.5" stroke="#4D736B" stroke-width="41"/>
<path d="M326.667 30.3333H330.667L329.9 26.0333C330.344 25.8111 330.694 25.4889 330.95 25.0667C331.206 24.6444 331.333 24.1778 331.333 23.6667C331.333 22.9333 331.072 22.3056 330.55 21.7833C330.028 21.2611 329.4 21 328.667 21C327.933 21 327.306 21.2611 326.783 21.7833C326.261 22.3056 326 22.9333 326 23.6667C326 24.1778 326.128 24.6444 326.383 25.0667C326.639 25.4889 326.989 25.8111 327.433 26.0333L326.667 30.3333ZM328.667 39.6667C325.578 38.8889 323.028 37.1167 321.017 34.35C319.006 31.5833 318 28.5111 318 25.1333V17L328.667 13L339.333 17V25.1333C339.333 28.5111 338.328 31.5833 336.317 34.35C334.306 37.1167 331.756 38.8889 328.667 39.6667ZM328.667 36.8667C330.978 36.1333 332.889 34.6667 334.4 32.4667C335.911 30.2667 336.667 27.8222 336.667 25.1333V18.8333L328.667 15.8333L320.667 18.8333V25.1333C320.667 27.8222 321.422 30.2667 322.933 32.4667C324.444 34.6667 326.356 36.1333 328.667 36.8667Z" fill="white"/>
<path d="M17.02 62V60.14C17.8733 59.4333 18.7 58.7333 19.5 58.04C20.3133 57.3467 21.0333 56.66 21.66 55.98C22.3 55.3 22.8067 54.64 23.18 54C23.5667 53.3467 23.76 52.7133 23.76 52.1C23.76 51.5267 23.6 51.02 23.28 50.58C22.9733 50.14 22.46 49.92 21.74 49.92C21.0067 49.92 20.4533 50.16 20.08 50.64C19.7067 51.12 19.52 51.7 19.52 52.38H17.04C17.0667 51.3533 17.2933 50.5 17.72 49.82C18.1467 49.1267 18.7133 48.6133 19.42 48.28C20.1267 47.9333 20.92 47.76 21.8 47.76C23.2267 47.76 24.3333 48.1533 25.12 48.94C25.92 49.7133 26.32 50.72 26.32 51.96C26.32 52.7333 26.14 53.4867 25.78 54.22C25.4333 54.9533 24.9733 55.66 24.4 56.34C23.8267 57.02 23.2067 57.66 22.54 58.26C21.8733 58.8467 21.2267 59.3933 20.6 59.9H26.66V62H17.02ZM28.4458 62V60.14C29.2991 59.4333 30.1258 58.7333 30.9258 58.04C31.7391 57.3467 32.4591 56.66 33.0858 55.98C33.7258 55.3 34.2324 54.64 34.6058 54C34.9924 53.3467 35.1858 52.7133 35.1858 52.1C35.1858 51.5267 35.0258 51.02 34.7058 50.58C34.3991 50.14 33.8858 49.92 33.1658 49.92C32.4324 49.92 31.8791 50.16 31.5058 50.64C31.1324 51.12 30.9458 51.7 30.9458 52.38H28.4658C28.4924 51.3533 28.7191 50.5 29.1458 49.82C29.5724 49.1267 30.1391 48.6133 30.8458 48.28C31.5524 47.9333 32.3458 47.76 33.2258 47.76C34.6524 47.76 35.7591 48.1533 36.5458 48.94C37.3458 49.7133 37.7458 50.72 37.7458 51.96C37.7458 52.7333 37.5658 53.4867 37.2058 54.22C36.8591 54.9533 36.3991 55.66 35.8258 56.34C35.2524 57.02 34.6324 57.66 33.9658 58.26C33.2991 58.8467 32.6524 59.3933 32.0258 59.9H38.0858V62H28.4458ZM45.8539 62.24C44.5606 62.24 43.4539 61.94 42.5339 61.34C41.6139 60.7267 40.9006 59.88 40.3939 58.8C39.9006 57.7067 39.6539 56.44 39.6539 55C39.6539 53.5733 39.9006 52.3133 40.3939 51.22C40.9006 50.1267 41.6139 49.28 42.5339 48.68C43.4539 48.0667 44.5606 47.76 45.8539 47.76C47.1472 47.76 48.2539 48.0667 49.1739 48.68C50.0939 49.28 50.8006 50.1267 51.2939 51.22C51.8006 52.3133 52.0539 53.5733 52.0539 55C52.0539 56.44 51.8006 57.7067 51.2939 58.8C50.8006 59.88 50.0939 60.7267 49.1739 61.34C48.2539 61.94 47.1472 62.24 45.8539 62.24ZM45.8539 59.94C46.9072 59.94 47.7672 59.5 48.4339 58.62C49.1006 57.74 49.4339 56.5333 49.4339 55C49.4339 53.4667 49.1006 52.26 48.4339 51.38C47.7672 50.5 46.9072 50.06 45.8539 50.06C44.7872 50.06 43.9206 50.5 43.2539 51.38C42.6006 52.26 42.2739 53.4667 42.2739 55C42.2739 56.5333 42.6006 57.74 43.2539 58.62C43.9206 59.5 44.7872 59.94 45.8539 59.94ZM59.2531 62.24C58.2931 62.24 57.4265 62.0733 56.6531 61.74C55.8798 61.3933 55.2598 60.9067 54.7931 60.28C54.3398 59.6533 54.1131 58.9267 54.1131 58.1C54.1131 57.2467 54.3331 56.5 54.7731 55.86C55.2265 55.22 55.8198 54.76 56.5531 54.48C55.9131 54.2 55.4065 53.8 55.0331 53.28C54.6598 52.7467 54.4731 52.1533 54.4731 51.5C54.4731 50.8333 54.6531 50.22 55.0131 49.66C55.3731 49.0867 55.9065 48.6267 56.6131 48.28C57.3331 47.9333 58.2131 47.76 59.2531 47.76C60.2931 47.76 61.1665 47.9333 61.8731 48.28C62.5798 48.6267 63.1131 49.0867 63.4731 49.66C63.8331 50.22 64.0131 50.8333 64.0131 51.5C64.0131 52.14 63.8198 52.7333 63.4331 53.28C63.0598 53.8133 62.5598 54.2133 61.9331 54.48C62.6798 54.76 63.2731 55.22 63.7131 55.86C64.1531 56.5 64.3731 57.2467 64.3731 58.1C64.3731 58.9267 64.1465 59.6533 63.6931 60.28C63.2398 60.9067 62.6198 61.3933 61.8331 61.74C61.0598 62.0733 60.1998 62.24 59.2531 62.24ZM59.2531 53.72C59.9465 53.72 60.4931 53.54 60.8931 53.18C61.2931 52.82 61.4931 52.36 61.4931 51.8C61.4931 51.1867 61.2931 50.7067 60.8931 50.36C60.5065 50.0133 59.9598 49.84 59.2531 49.84C58.5331 49.84 57.9798 50.0133 57.5931 50.36C57.2065 50.7067 57.0131 51.1867 57.0131 51.8C57.0131 52.3733 57.2065 52.84 57.5931 53.2C57.9931 53.5467 58.5465 53.72 59.2531 53.72ZM59.2531 60.1C60.1065 60.1 60.7531 59.8933 61.1931 59.48C61.6331 59.0533 61.8531 58.52 61.8531 57.88C61.8531 57.1733 61.6198 56.62 61.1531 56.22C60.6998 55.82 60.0665 55.62 59.2531 55.62C58.4398 55.62 57.7931 55.82 57.3131 56.22C56.8465 56.62 56.6131 57.1733 56.6131 57.88C56.6131 58.52 56.8331 59.0533 57.2731 59.48C57.7265 59.8933 58.3865 60.1 59.2531 60.1ZM73.1769 62V50.92L70.8769 51.46V49.5L74.2569 48H75.8369V62H73.1769ZM83.3314 62.24C82.3581 62.24 81.5381 62.0533 80.8714 61.68C80.2047 61.2933 79.6847 60.7933 79.3114 60.18C78.9381 59.5667 78.7181 58.9067 78.6514 58.2H81.0314C81.1381 58.8133 81.3914 59.2867 81.7914 59.62C82.2047 59.9533 82.7247 60.12 83.3514 60.12C84.2447 60.12 84.9647 59.7133 85.5114 58.9C86.0581 58.0733 86.3514 56.82 86.3914 55.14C86.0714 55.6867 85.5847 56.14 84.9314 56.5C84.2914 56.86 83.5847 57.04 82.8114 57.04C82.0381 57.04 81.3114 56.8533 80.6314 56.48C79.9514 56.1067 79.3981 55.58 78.9714 54.9C78.5447 54.22 78.3314 53.42 78.3314 52.5C78.3314 51.66 78.5381 50.88 78.9514 50.16C79.3647 49.44 79.9381 48.86 80.6714 48.42C81.4047 47.98 82.2647 47.76 83.2514 47.76C84.3047 47.76 85.1914 47.9533 85.9114 48.34C86.6314 48.7267 87.2047 49.2467 87.6314 49.9C88.0714 50.5533 88.3847 51.28 88.5714 52.08C88.7714 52.88 88.8714 53.7 88.8714 54.54C88.8714 56.1 88.6514 57.46 88.2114 58.62C87.7847 59.7667 87.1514 60.66 86.3114 61.3C85.4847 61.9267 84.4914 62.24 83.3314 62.24ZM83.4114 54.88C83.9047 54.88 84.3514 54.7733 84.7514 54.56C85.1514 54.3333 85.4647 54.04 85.6914 53.68C85.9181 53.3067 86.0314 52.8933 86.0314 52.44C86.0314 51.72 85.7781 51.1267 85.2714 50.66C84.7781 50.1933 84.1514 49.96 83.3914 49.96C82.6447 49.96 82.0247 50.1933 81.5314 50.66C81.0381 51.1133 80.7914 51.6933 80.7914 52.4C80.7914 53.1467 81.0381 53.7467 81.5314 54.2C82.0247 54.6533 82.6514 54.88 83.4114 54.88ZM96.0072 62.24C95.0339 62.24 94.2139 62.0533 93.5472 61.68C92.8805 61.2933 92.3605 60.7933 91.9872 60.18C91.6139 59.5667 91.3939 58.9067 91.3272 58.2H93.7072C93.8139 58.8133 94.0672 59.2867 94.4672 59.62C94.8805 59.9533 95.4005 60.12 96.0272 60.12C96.9205 60.12 97.6405 59.7133 98.1872 58.9C98.7339 58.0733 99.0272 56.82 99.0672 55.14C98.7472 55.6867 98.2605 56.14 97.6072 56.5C96.9672 56.86 96.2605 57.04 95.4872 57.04C94.7139 57.04 93.9872 56.8533 93.3072 56.48C92.6272 56.1067 92.0739 55.58 91.6472 54.9C91.2205 54.22 91.0072 53.42 91.0072 52.5C91.0072 51.66 91.2139 50.88 91.6272 50.16C92.0405 49.44 92.6139 48.86 93.3472 48.42C94.0805 47.98 94.9405 47.76 95.9272 47.76C96.9805 47.76 97.8672 47.9533 98.5872 48.34C99.3072 48.7267 99.8805 49.2467 100.307 49.9C100.747 50.5533 101.061 51.28 101.247 52.08C101.447 52.88 101.547 53.7 101.547 54.54C101.547 56.1 101.327 57.46 100.887 58.62C100.461 59.7667 99.8272 60.66 98.9872 61.3C98.1605 61.9267 97.1672 62.24 96.0072 62.24ZM96.0872 54.88C96.5805 54.88 97.0272 54.7733 97.4272 54.56C97.8272 54.3333 98.1405 54.04 98.3672 53.68C98.5939 53.3067 98.7072 52.8933 98.7072 52.44C98.7072 51.72 98.4539 51.1267 97.9472 50.66C97.4539 50.1933 96.8272 49.96 96.0672 49.96C95.3205 49.96 94.7005 50.1933 94.2072 50.66C93.7139 51.1133 93.4672 51.6933 93.4672 52.4C93.4672 53.1467 93.7139 53.7467 94.2072 54.2C94.7005 54.6533 95.3272 54.88 96.0872 54.88ZM109.163 62.24C108.11 62.24 107.223 62.0467 106.503 61.66C105.783 61.2733 105.203 60.7533 104.763 60.1C104.323 59.4467 104.003 58.72 103.803 57.92C103.616 57.12 103.523 56.3 103.523 55.46C103.523 53.9 103.743 52.5467 104.183 51.4C104.623 50.24 105.256 49.3467 106.083 48.72C106.91 48.08 107.91 47.76 109.083 47.76C110.043 47.76 110.856 47.9533 111.523 48.34C112.203 48.7133 112.73 49.2067 113.103 49.82C113.476 50.4333 113.696 51.0933 113.763 51.8H111.383C111.263 51.1867 111.003 50.7133 110.603 50.38C110.203 50.0467 109.69 49.88 109.063 49.88C108.17 49.88 107.45 50.2933 106.903 51.12C106.356 51.9333 106.063 53.18 106.023 54.86C106.343 54.3133 106.823 53.86 107.463 53.5C108.103 53.14 108.816 52.96 109.603 52.96C110.376 52.96 111.103 53.1467 111.783 53.52C112.463 53.8933 113.01 54.42 113.423 55.1C113.85 55.78 114.063 56.58 114.063 57.5C114.063 58.34 113.856 59.12 113.443 59.84C113.043 60.56 112.47 61.14 111.723 61.58C110.99 62.02 110.136 62.24 109.163 62.24ZM109.023 60.04C109.77 60.04 110.383 59.8133 110.863 59.36C111.356 58.8933 111.603 58.3067 111.603 57.6C111.603 56.8533 111.356 56.2533 110.863 55.8C110.37 55.3467 109.743 55.12 108.983 55.12C108.49 55.12 108.043 55.2333 107.643 55.46C107.256 55.6733 106.95 55.9667 106.723 56.34C106.496 56.7 106.383 57.1067 106.383 57.56C106.383 58.28 106.63 58.8733 107.123 59.34C107.63 59.8067 108.263 60.04 109.023 60.04ZM121.004 62V60.14C121.858 59.4333 122.684 58.7333 123.484 58.04C124.298 57.3467 125.018 56.66 125.644 55.98C126.284 55.3 126.791 54.64 127.164 54C127.551 53.3467 127.744 52.7133 127.744 52.1C127.744 51.5267 127.584 51.02 127.264 50.58C126.958 50.14 126.444 49.92 125.724 49.92C124.991 49.92 124.438 50.16 124.064 50.64C123.691 51.12 123.504 51.7 123.504 52.38H121.024C121.051 51.3533 121.278 50.5 121.704 49.82C122.131 49.1267 122.698 48.6133 123.404 48.28C124.111 47.9333 124.904 47.76 125.784 47.76C127.211 47.76 128.318 48.1533 129.104 48.94C129.904 49.7133 130.304 50.72 130.304 51.96C130.304 52.7333 130.124 53.4867 129.764 54.22C129.418 54.9533 128.958 55.66 128.384 56.34C127.811 57.02 127.191 57.66 126.524 58.26C125.858 58.8467 125.211 59.3933 124.584 59.9H130.644V62H121.004ZM138.413 62.24C137.119 62.24 136.013 61.94 135.093 61.34C134.173 60.7267 133.459 59.88 132.953 58.8C132.459 57.7067 132.213 56.44 132.213 55C132.213 53.5733 132.459 52.3133 132.953 51.22C133.459 50.1267 134.173 49.28 135.093 48.68C136.013 48.0667 137.119 47.76 138.413 47.76C139.706 47.76 140.813 48.0667 141.733 48.68C142.653 49.28 143.359 50.1267 143.853 51.22C144.359 52.3133 144.613 53.5733 144.613 55C144.613 56.44 144.359 57.7067 143.853 58.8C143.359 59.88 142.653 60.7267 141.733 61.34C140.813 61.94 139.706 62.24 138.413 62.24ZM138.413 59.94C139.466 59.94 140.326 59.5 140.993 58.62C141.659 57.74 141.993 56.5333 141.993 55C141.993 53.4667 141.659 52.26 140.993 51.38C140.326 50.5 139.466 50.06 138.413 50.06C137.346 50.06 136.479 50.5 135.813 51.38C135.159 52.26 134.833 53.4667 134.833 55C134.833 56.5333 135.159 57.74 135.813 58.62C136.479 59.5 137.346 59.94 138.413 59.94ZM148.392 62V50.92L146.092 51.46V49.5L149.472 48H151.052V62H148.392ZM158.546 62.24C157.573 62.24 156.753 62.0533 156.086 61.68C155.42 61.2933 154.9 60.7933 154.526 60.18C154.153 59.5667 153.933 58.9067 153.866 58.2H156.246C156.353 58.8133 156.606 59.2867 157.006 59.62C157.42 59.9533 157.94 60.12 158.566 60.12C159.46 60.12 160.18 59.7133 160.726 58.9C161.273 58.0733 161.566 56.82 161.606 55.14C161.286 55.6867 160.8 56.14 160.146 56.5C159.506 56.86 158.8 57.04 158.026 57.04C157.253 57.04 156.526 56.8533 155.846 56.48C155.166 56.1067 154.613 55.58 154.186 54.9C153.76 54.22 153.546 53.42 153.546 52.5C153.546 51.66 153.753 50.88 154.166 50.16C154.58 49.44 155.153 48.86 155.886 48.42C156.62 47.98 157.48 47.76 158.466 47.76C159.52 47.76 160.406 47.9533 161.126 48.34C161.846 48.7267 162.42 49.2467 162.846 49.9C163.286 50.5533 163.6 51.28 163.786 52.08C163.986 52.88 164.086 53.7 164.086 54.54C164.086 56.1 163.866 57.46 163.426 58.62C163 59.7667 162.366 60.66 161.526 61.3C160.7 61.9267 159.706 62.24 158.546 62.24ZM158.626 54.88C159.12 54.88 159.566 54.7733 159.966 54.56C160.366 54.3333 160.68 54.04 160.906 53.68C161.133 53.3067 161.246 52.8933 161.246 52.44C161.246 51.72 160.993 51.1267 160.486 50.66C159.993 50.1933 159.366 49.96 158.606 49.96C157.86 49.96 157.24 50.1933 156.746 50.66C156.253 51.1133 156.006 51.6933 156.006 52.4C156.006 53.1467 156.253 53.7467 156.746 54.2C157.24 54.6533 157.866 54.88 158.626 54.88ZM175.788 62.24C174.868 62.24 174.034 62.08 173.288 61.76C172.541 61.4267 171.941 60.92 171.488 60.24C171.034 59.56 170.794 58.7067 170.768 57.68H173.288C173.301 58.36 173.521 58.9333 173.948 59.4C174.388 59.8533 175.001 60.08 175.788 60.08C176.534 60.08 177.108 59.8733 177.508 59.46C177.908 59.0467 178.108 58.5267 178.108 57.9C178.108 57.1667 177.841 56.6133 177.308 56.24C176.788 55.8533 176.114 55.66 175.288 55.66H174.248V53.56H175.308C175.988 53.56 176.554 53.4 177.008 53.08C177.461 52.76 177.688 52.2867 177.688 51.66C177.688 51.14 177.514 50.7267 177.168 50.42C176.834 50.1 176.368 49.94 175.768 49.94C175.114 49.94 174.601 50.1333 174.228 50.52C173.868 50.9067 173.668 51.38 173.628 51.94H171.128C171.181 50.6467 171.628 49.6267 172.468 48.88C173.321 48.1333 174.421 47.76 175.768 47.76C176.728 47.76 177.534 47.9333 178.188 48.28C178.854 48.6133 179.354 49.06 179.688 49.62C180.034 50.18 180.208 50.8 180.208 51.48C180.208 52.2667 179.988 52.9333 179.548 53.48C179.121 54.0133 178.588 54.3733 177.948 54.56C178.734 54.72 179.374 55.1067 179.868 55.72C180.361 56.32 180.608 57.08 180.608 58C180.608 58.7733 180.421 59.48 180.048 60.12C179.674 60.76 179.128 61.2733 178.408 61.66C177.701 62.0467 176.828 62.24 175.788 62.24ZM188.862 62.24C187.568 62.24 186.462 61.94 185.542 61.34C184.622 60.7267 183.908 59.88 183.402 58.8C182.908 57.7067 182.662 56.44 182.662 55C182.662 53.5733 182.908 52.3133 183.402 51.22C183.908 50.1267 184.622 49.28 185.542 48.68C186.462 48.0667 187.568 47.76 188.862 47.76C190.155 47.76 191.262 48.0667 192.182 48.68C193.102 49.28 193.808 50.1267 194.302 51.22C194.808 52.3133 195.062 53.5733 195.062 55C195.062 56.44 194.808 57.7067 194.302 58.8C193.808 59.88 193.102 60.7267 192.182 61.34C191.262 61.94 190.155 62.24 188.862 62.24ZM188.862 59.94C189.915 59.94 190.775 59.5 191.442 58.62C192.108 57.74 192.442 56.5333 192.442 55C192.442 53.4667 192.108 52.26 191.442 51.38C190.775 50.5 189.915 50.06 188.862 50.06C187.795 50.06 186.928 50.5 186.262 51.38C185.608 52.26 185.282 53.4667 185.282 55C185.282 56.5333 185.608 57.74 186.262 58.62C186.928 59.5 187.795 59.94 188.862 59.94ZM198.841 62V50.92L196.541 51.46V49.5L199.921 48H201.501V62H198.841ZM208.795 62.24C207.875 62.24 207.042 62.08 206.295 61.76C205.549 61.4267 204.949 60.92 204.495 60.24C204.042 59.56 203.802 58.7067 203.775 57.68H206.295C206.309 58.36 206.529 58.9333 206.955 59.4C207.395 59.8533 208.009 60.08 208.795 60.08C209.542 60.08 210.115 59.8733 210.515 59.46C210.915 59.0467 211.115 58.5267 211.115 57.9C211.115 57.1667 210.849 56.6133 210.315 56.24C209.795 55.8533 209.122 55.66 208.295 55.66H207.255V53.56H208.315C208.995 53.56 209.562 53.4 210.015 53.08C210.469 52.76 210.695 52.2867 210.695 51.66C210.695 51.14 210.522 50.7267 210.175 50.42C209.842 50.1 209.375 49.94 208.775 49.94C208.122 49.94 207.609 50.1333 207.235 50.52C206.875 50.9067 206.675 51.38 206.635 51.94H204.135C204.189 50.6467 204.635 49.6267 205.475 48.88C206.329 48.1333 207.429 47.76 208.775 47.76C209.735 47.76 210.542 47.9333 211.195 48.28C211.862 48.6133 212.362 49.06 212.695 49.62C213.042 50.18 213.215 50.8 213.215 51.48C213.215 52.2667 212.995 52.9333 212.555 53.48C212.129 54.0133 211.595 54.3733 210.955 54.56C211.742 54.72 212.382 55.1067 212.875 55.72C213.369 56.32 213.615 57.08 213.615 58C213.615 58.7733 213.429 59.48 213.055 60.12C212.682 60.76 212.135 61.2733 211.415 61.66C210.709 62.0467 209.835 62.24 208.795 62.24Z" fill="white"/>
<path d="M19.42 146L16.264 137.6H17.356L20.008 144.932L22.684 137.6H23.752L20.596 146H19.42ZM23.2155 146L26.3115 137.6H27.3795L30.4635 146H29.3955L28.6275 143.84H25.0515L24.2715 146H23.2155ZM25.3515 143.024H28.3275L26.8395 138.872L25.3515 143.024ZM31.7122 146V137.6H32.7202V145.196H36.6322V146H31.7122ZM38.0169 146V137.6H39.0249V146H38.0169ZM40.806 146V137.6H43.386C44.866 137.6 45.954 137.976 46.65 138.728C47.354 139.48 47.706 140.512 47.706 141.824C47.706 143.112 47.354 144.132 46.65 144.884C45.954 145.628 44.866 146 43.386 146H40.806ZM41.814 145.16H43.362C44.178 145.16 44.826 145.028 45.306 144.764C45.794 144.492 46.142 144.108 46.35 143.612C46.558 143.108 46.662 142.512 46.662 141.824C46.662 141.12 46.558 140.516 46.35 140.012C46.142 139.508 45.794 139.12 45.306 138.848C44.826 138.576 44.178 138.44 43.362 138.44H41.814V145.16ZM54.3052 146V138.428H51.7972V137.6H57.8212V138.428H55.3132V146H54.3052ZM59.0521 146V137.6H60.0601V141.308H64.4161V137.6H65.4241V146H64.4161V142.136H60.0601V146H59.0521ZM67.1966 146V137.6H69.9086C70.5646 137.6 71.1006 137.708 71.5166 137.924C71.9326 138.14 72.2406 138.436 72.4406 138.812C72.6406 139.188 72.7406 139.604 72.7406 140.06C72.7406 140.588 72.5966 141.064 72.3086 141.488C72.0286 141.912 71.5886 142.212 70.9886 142.388L72.8246 146H71.6366L69.9326 142.532H69.8606H68.2046V146H67.1966ZM68.2046 141.74H69.8366C70.4846 141.74 70.9566 141.584 71.2526 141.272C71.5486 140.96 71.6966 140.56 71.6966 140.072C71.6966 139.576 71.5486 139.184 71.2526 138.896C70.9646 138.6 70.4886 138.452 69.8246 138.452H68.2046V141.74ZM77.3459 146.144C76.7699 146.144 76.2459 146.032 75.7739 145.808C75.3099 145.576 74.9379 145.22 74.6579 144.74C74.3779 144.26 74.2379 143.648 74.2379 142.904V137.6H75.2459V142.916C75.2459 143.732 75.4419 144.324 75.8339 144.692C76.2259 145.06 76.7379 145.244 77.3699 145.244C78.0019 145.244 78.5099 145.06 78.8939 144.692C79.2779 144.324 79.4699 143.732 79.4699 142.916V137.6H80.4779V142.904C80.4779 143.648 80.3379 144.26 80.0579 144.74C79.7779 145.22 79.4019 145.576 78.9299 145.808C78.4579 146.032 77.9299 146.144 77.3459 146.144Z" fill="white"/>
<path d="M18.304 166V157.136L16.464 157.568V156L19.168 154.8H20.432V166H18.304ZM23.8196 166V157.136L21.9796 157.568V156L24.6836 154.8H25.9476V166H23.8196ZM27.3993 167.776L31.3993 153.568H33.3993L29.3832 167.776H27.3993ZM34.5816 166V164.512C35.2643 163.947 35.9256 163.387 36.5656 162.832C37.2163 162.277 37.7923 161.728 38.2936 161.184C38.8056 160.64 39.211 160.112 39.5096 159.6C39.819 159.077 39.9736 158.571 39.9736 158.08C39.9736 157.621 39.8456 157.216 39.5896 156.864C39.3443 156.512 38.9336 156.336 38.3576 156.336C37.771 156.336 37.3283 156.528 37.0296 156.912C36.731 157.296 36.5816 157.76 36.5816 158.304H34.5976C34.619 157.483 34.8003 156.8 35.1416 156.256C35.483 155.701 35.9363 155.291 36.5016 155.024C37.067 154.747 37.7016 154.608 38.4056 154.608C39.547 154.608 40.4323 154.923 41.0616 155.552C41.7016 156.171 42.0216 156.976 42.0216 157.968C42.0216 158.587 41.8776 159.189 41.5896 159.776C41.3123 160.363 40.9443 160.928 40.4856 161.472C40.027 162.016 39.531 162.528 38.9976 163.008C38.4643 163.477 37.947 163.915 37.4456 164.32H42.2936V166H34.5816ZM48.9736 166V163.92H43.4536V162.288L48.7016 154.8H51.0216V162.144H52.4936V163.92H51.0216V166H48.9736ZM45.6456 162.144H49.1016V157.056L45.6456 162.144Z" fill="white"/>
<path d="M255.564 166.144C254.948 166.144 254.412 166.032 253.956 165.808C253.5 165.584 253.148 165.272 252.9 164.872C252.652 164.472 252.528 164.008 252.528 163.48H253.584C253.584 163.808 253.66 164.112 253.812 164.392C253.964 164.664 254.184 164.884 254.472 165.052C254.768 165.212 255.132 165.292 255.564 165.292C256.132 165.292 256.572 165.156 256.884 164.884C257.196 164.612 257.352 164.272 257.352 163.864C257.352 163.528 257.28 163.26 257.136 163.06C256.992 162.852 256.796 162.684 256.548 162.556C256.308 162.428 256.028 162.316 255.708 162.22C255.396 162.124 255.068 162.016 254.724 161.896C254.076 161.672 253.596 161.396 253.284 161.068C252.972 160.732 252.816 160.296 252.816 159.76C252.808 159.312 252.912 158.916 253.128 158.572C253.344 158.22 253.648 157.948 254.04 157.756C254.44 157.556 254.912 157.456 255.456 157.456C255.992 157.456 256.456 157.556 256.848 157.756C257.248 157.956 257.556 158.232 257.772 158.584C257.996 158.936 258.112 159.336 258.12 159.784H257.064C257.064 159.552 257.004 159.324 256.884 159.1C256.764 158.868 256.58 158.68 256.332 158.536C256.092 158.392 255.788 158.32 255.42 158.32C254.964 158.312 254.588 158.428 254.292 158.668C254.004 158.908 253.86 159.24 253.86 159.664C253.86 160.024 253.96 160.3 254.16 160.492C254.368 160.684 254.656 160.844 255.024 160.972C255.392 161.092 255.816 161.232 256.296 161.392C256.696 161.536 257.056 161.704 257.376 161.896C257.696 162.088 257.944 162.336 258.12 162.64C258.304 162.944 258.396 163.332 258.396 163.804C258.396 164.204 258.292 164.584 258.084 164.944C257.876 165.296 257.56 165.584 257.136 165.808C256.72 166.032 256.196 166.144 255.564 166.144ZM262.442 166.144C261.874 166.144 261.37 166.016 260.93 165.76C260.49 165.496 260.142 165.132 259.886 164.668C259.638 164.204 259.514 163.656 259.514 163.024C259.514 162.4 259.638 161.856 259.886 161.392C260.134 160.92 260.478 160.556 260.918 160.3C261.366 160.036 261.882 159.904 262.465 159.904C263.042 159.904 263.538 160.036 263.954 160.3C264.378 160.556 264.702 160.896 264.926 161.32C265.15 161.744 265.262 162.2 265.262 162.688C265.262 162.776 265.258 162.864 265.25 162.952C265.25 163.04 265.25 163.14 265.25 163.252H260.51C260.534 163.708 260.638 164.088 260.822 164.392C261.014 164.688 261.25 164.912 261.53 165.064C261.818 165.216 262.122 165.292 262.442 165.292C262.858 165.292 263.206 165.196 263.486 165.004C263.766 164.812 263.97 164.552 264.098 164.224H265.094C264.934 164.776 264.626 165.236 264.17 165.604C263.722 165.964 263.146 166.144 262.442 166.144ZM262.442 160.756C261.962 160.756 261.534 160.904 261.158 161.2C260.79 161.488 260.578 161.912 260.521 162.472H264.266C264.242 161.936 264.058 161.516 263.714 161.212C263.37 160.908 262.946 160.756 262.442 160.756ZM269.334 166.144C268.766 166.144 268.254 166.016 267.798 165.76C267.35 165.496 266.994 165.132 266.73 164.668C266.474 164.196 266.346 163.648 266.346 163.024C266.346 162.4 266.474 161.856 266.73 161.392C266.994 160.92 267.35 160.556 267.798 160.3C268.254 160.036 268.766 159.904 269.334 159.904C270.038 159.904 270.63 160.088 271.11 160.456C271.598 160.824 271.906 161.316 272.034 161.932H271.002C270.922 161.564 270.726 161.28 270.414 161.08C270.102 160.872 269.738 160.768 269.322 160.768C268.986 160.768 268.67 160.852 268.374 161.02C268.078 161.188 267.838 161.44 267.654 161.776C267.47 162.112 267.378 162.528 267.378 163.024C267.378 163.52 267.47 163.936 267.654 164.272C267.838 164.608 268.078 164.864 268.374 165.04C268.67 165.208 268.986 165.292 269.322 165.292C269.738 165.292 270.102 165.192 270.414 164.992C270.726 164.784 270.922 164.492 271.002 164.116H272.034C271.914 164.716 271.61 165.204 271.122 165.58C270.634 165.956 270.038 166.144 269.334 166.144ZM275.613 166.144C274.909 166.144 274.349 165.932 273.933 165.508C273.517 165.076 273.309 164.416 273.309 163.528V160.048H274.317V163.42C274.317 164.66 274.825 165.28 275.841 165.28C276.361 165.28 276.789 165.096 277.125 164.728C277.469 164.352 277.641 163.82 277.641 163.132V160.048H278.649V166H277.737L277.665 164.932C277.481 165.308 277.205 165.604 276.837 165.82C276.477 166.036 276.069 166.144 275.613 166.144ZM280.308 166V160.048H281.22L281.304 161.188C281.488 160.796 281.768 160.484 282.144 160.252C282.52 160.02 282.984 159.904 283.536 159.904V160.96H283.26C282.908 160.96 282.584 161.024 282.288 161.152C281.992 161.272 281.756 161.48 281.58 161.776C281.404 162.072 281.316 162.48 281.316 163V166H280.308ZM287.121 166.144C286.553 166.144 286.049 166.016 285.609 165.76C285.169 165.496 284.821 165.132 284.565 164.668C284.317 164.204 284.193 163.656 284.193 163.024C284.193 162.4 284.317 161.856 284.565 161.392C284.813 160.92 285.157 160.556 285.597 160.3C286.045 160.036 286.561 159.904 287.145 159.904C287.721 159.904 288.217 160.036 288.633 160.3C289.057 160.556 289.381 160.896 289.605 161.32C289.829 161.744 289.941 162.2 289.941 162.688C289.941 162.776 289.937 162.864 289.929 162.952C289.929 163.04 289.929 163.14 289.929 163.252H285.189C285.213 163.708 285.317 164.088 285.501 164.392C285.693 164.688 285.929 164.912 286.209 165.064C286.497 165.216 286.801 165.292 287.121 165.292C287.537 165.292 287.885 165.196 288.165 165.004C288.445 164.812 288.649 164.552 288.777 164.224H289.773C289.613 164.776 289.305 165.236 288.849 165.604C288.401 165.964 287.825 166.144 287.121 166.144ZM287.121 160.756C286.641 160.756 286.213 160.904 285.837 161.2C285.469 161.488 285.257 161.912 285.201 162.472H288.945C288.921 161.936 288.737 161.516 288.393 161.212C288.049 160.908 287.625 160.756 287.121 160.756ZM293.977 166.144C293.385 166.144 292.865 166.008 292.417 165.736C291.977 165.464 291.633 165.092 291.385 164.62C291.145 164.148 291.025 163.612 291.025 163.012C291.025 162.412 291.149 161.88 291.397 161.416C291.645 160.944 291.989 160.576 292.429 160.312C292.869 160.04 293.389 159.904 293.989 159.904C294.477 159.904 294.909 160.004 295.285 160.204C295.661 160.404 295.953 160.684 296.161 161.044V157.36H297.169V166H296.257L296.161 165.016C295.969 165.304 295.693 165.564 295.333 165.796C294.973 166.028 294.521 166.144 293.977 166.144ZM294.085 165.268C294.485 165.268 294.837 165.176 295.141 164.992C295.453 164.8 295.693 164.536 295.861 164.2C296.037 163.864 296.125 163.472 296.125 163.024C296.125 162.576 296.037 162.184 295.861 161.848C295.693 161.512 295.453 161.252 295.141 161.068C294.837 160.876 294.485 160.78 294.085 160.78C293.693 160.78 293.341 160.876 293.029 161.068C292.725 161.252 292.485 161.512 292.309 161.848C292.141 162.184 292.057 162.576 292.057 163.024C292.057 163.472 292.141 163.864 292.309 164.2C292.485 164.536 292.725 164.8 293.029 164.992C293.341 165.176 293.693 165.268 294.085 165.268ZM305.168 166.144C304.68 166.144 304.244 166.044 303.86 165.844C303.484 165.644 303.196 165.364 302.996 165.004L302.9 166H301.988V157.36H302.996V161.032C303.188 160.744 303.46 160.484 303.812 160.252C304.172 160.02 304.628 159.904 305.18 159.904C305.772 159.904 306.288 160.04 306.728 160.312C307.168 160.584 307.508 160.956 307.748 161.428C307.996 161.9 308.12 162.436 308.12 163.036C308.12 163.636 307.996 164.172 307.748 164.644C307.508 165.108 307.164 165.476 306.716 165.748C306.276 166.012 305.76 166.144 305.168 166.144ZM305.06 165.268C305.46 165.268 305.812 165.176 306.116 164.992C306.42 164.8 306.66 164.536 306.836 164.2C307.012 163.864 307.1 163.472 307.1 163.024C307.1 162.576 307.012 162.184 306.836 161.848C306.66 161.512 306.42 161.252 306.116 161.068C305.812 160.876 305.46 160.78 305.06 160.78C304.66 160.78 304.308 160.876 304.004 161.068C303.7 161.252 303.46 161.512 303.284 161.848C303.108 162.184 303.02 162.576 303.02 163.024C303.02 163.472 303.108 163.864 303.284 164.2C303.46 164.536 303.7 164.8 304.004 164.992C304.308 165.176 304.66 165.268 305.06 165.268ZM309.691 168.64L311.167 165.424H310.819L308.455 160.048H309.547L311.515 164.68L313.603 160.048H314.647L310.747 168.64H309.691ZM318.419 166L321.515 157.6H322.583L325.667 166H324.599L323.831 163.84H320.255L319.475 166H318.419ZM320.555 163.024H323.531L322.043 158.872L320.555 163.024ZM326.855 166V160.048H327.767L327.827 161.116C328.019 160.74 328.295 160.444 328.655 160.228C329.015 160.012 329.423 159.904 329.879 159.904C330.583 159.904 331.143 160.12 331.559 160.552C331.983 160.976 332.195 161.632 332.195 162.52V166H331.187V162.628C331.187 161.388 330.675 160.768 329.651 160.768C329.139 160.768 328.711 160.956 328.367 161.332C328.031 161.7 327.863 162.228 327.863 162.916V166H326.855ZM336.435 166.144C335.875 166.144 335.371 166.016 334.923 165.76C334.475 165.504 334.119 165.144 333.855 164.68C333.599 164.208 333.471 163.656 333.471 163.024C333.471 162.392 333.603 161.844 333.867 161.38C334.131 160.908 334.487 160.544 334.935 160.288C335.391 160.032 335.899 159.904 336.459 159.904C337.019 159.904 337.523 160.032 337.971 160.288C338.419 160.544 338.771 160.908 339.027 161.38C339.291 161.844 339.423 162.392 339.423 163.024C339.423 163.656 339.291 164.208 339.027 164.68C338.763 165.144 338.403 165.504 337.947 165.76C337.499 166.016 336.995 166.144 336.435 166.144ZM336.435 165.28C336.779 165.28 337.099 165.196 337.395 165.028C337.691 164.86 337.931 164.608 338.115 164.272C338.299 163.936 338.391 163.52 338.391 163.024C338.391 162.528 338.299 162.112 338.115 161.776C337.939 161.44 337.703 161.188 337.407 161.02C337.111 160.852 336.795 160.768 336.459 160.768C336.115 160.768 335.795 160.852 335.499 161.02C335.203 161.188 334.963 161.44 334.779 161.776C334.595 162.112 334.503 162.528 334.503 163.024C334.503 163.52 334.595 163.936 334.779 164.272C334.963 164.608 335.199 164.86 335.487 165.028C335.783 165.196 336.099 165.28 336.435 165.28ZM339.966 166L342.03 163.024L339.966 160.048H341.058L342.726 162.508L344.406 160.048H345.486L343.422 163.024L345.486 166H344.406L342.726 163.54L341.058 166H339.966Z" fill="white"/>
<path d="M20.572 30.144C19.748 30.144 19.036 29.964 18.436 29.604C17.844 29.236 17.384 28.728 17.056 28.08C16.728 27.424 16.564 26.664 16.564 25.8C16.564 24.944 16.728 24.192 17.056 23.544C17.384 22.888 17.844 22.376 18.436 22.008C19.036 21.64 19.748 21.456 20.572 21.456C21.532 21.456 22.312 21.688 22.912 22.152C23.52 22.608 23.908 23.248 24.076 24.072H22.96C22.832 23.552 22.568 23.136 22.168 22.824C21.776 22.504 21.244 22.344 20.572 22.344C19.972 22.344 19.448 22.484 19 22.764C18.552 23.036 18.204 23.432 17.956 23.952C17.716 24.464 17.596 25.08 17.596 25.8C17.596 26.52 17.716 27.14 17.956 27.66C18.204 28.172 18.552 28.568 19 28.848C19.448 29.12 19.972 29.256 20.572 29.256C21.244 29.256 21.776 29.104 22.168 28.8C22.568 28.488 22.832 28.076 22.96 27.564H24.076C23.908 28.372 23.52 29.004 22.912 29.46C22.312 29.916 21.532 30.144 20.572 30.144ZM27.4447 30.144C26.9487 30.144 26.5367 30.06 26.2087 29.892C25.8807 29.724 25.6367 29.5 25.4767 29.22C25.3167 28.94 25.2367 28.636 25.2367 28.308C25.2367 27.7 25.4687 27.232 25.9327 26.904C26.3967 26.576 27.0287 26.412 27.8287 26.412H29.4367V26.34C29.4367 25.82 29.3007 25.428 29.0287 25.164C28.7567 24.892 28.3927 24.756 27.9367 24.756C27.5447 24.756 27.2047 24.856 26.9167 25.056C26.6367 25.248 26.4607 25.532 26.3887 25.908H25.3567C25.3967 25.476 25.5407 25.112 25.7887 24.816C26.0447 24.52 26.3607 24.296 26.7367 24.144C27.1127 23.984 27.5127 23.904 27.9367 23.904C28.7687 23.904 29.3927 24.128 29.8087 24.576C30.2327 25.016 30.4447 25.604 30.4447 26.34V30H29.5447L29.4847 28.932C29.3167 29.268 29.0687 29.556 28.7407 29.796C28.4207 30.028 27.9887 30.144 27.4447 30.144ZM27.6007 29.292C27.9847 29.292 28.3127 29.192 28.5847 28.992C28.8647 28.792 29.0767 28.532 29.2207 28.212C29.3647 27.892 29.4367 27.556 29.4367 27.204V27.192H27.9127C27.3207 27.192 26.9007 27.296 26.6527 27.504C26.4127 27.704 26.2927 27.956 26.2927 28.26C26.2927 28.572 26.4047 28.824 26.6287 29.016C26.8607 29.2 27.1847 29.292 27.6007 29.292ZM31.9569 30V24.048H32.8689L32.9529 25.188C33.1369 24.796 33.4169 24.484 33.7929 24.252C34.1689 24.02 34.6329 23.904 35.1849 23.904V24.96H34.9089C34.5569 24.96 34.2329 25.024 33.9369 25.152C33.6409 25.272 33.4049 25.48 33.2289 25.776C33.0529 26.072 32.9649 26.48 32.9649 27V30H31.9569ZM38.7936 30.144C38.2016 30.144 37.6816 30.008 37.2336 29.736C36.7936 29.464 36.4496 29.092 36.2016 28.62C35.9616 28.148 35.8416 27.612 35.8416 27.012C35.8416 26.412 35.9656 25.88 36.2136 25.416C36.4616 24.944 36.8056 24.576 37.2456 24.312C37.6856 24.04 38.2056 23.904 38.8056 23.904C39.2936 23.904 39.7256 24.004 40.1016 24.204C40.4776 24.404 40.7696 24.684 40.9776 25.044V21.36H41.9856V30H41.0736L40.9776 29.016C40.7856 29.304 40.5096 29.564 40.1496 29.796C39.7896 30.028 39.3376 30.144 38.7936 30.144ZM38.9016 29.268C39.3016 29.268 39.6536 29.176 39.9576 28.992C40.2696 28.8 40.5096 28.536 40.6776 28.2C40.8536 27.864 40.9416 27.472 40.9416 27.024C40.9416 26.576 40.8536 26.184 40.6776 25.848C40.5096 25.512 40.2696 25.252 39.9576 25.068C39.6536 24.876 39.3016 24.78 38.9016 24.78C38.5096 24.78 38.1576 24.876 37.8456 25.068C37.5416 25.252 37.3016 25.512 37.1256 25.848C36.9576 26.184 36.8736 26.576 36.8736 27.024C36.8736 27.472 36.9576 27.864 37.1256 28.2C37.3016 28.536 37.5416 28.8 37.8456 28.992C38.1576 29.176 38.5096 29.268 38.9016 29.268ZM46.8646 30V21.6H49.4446C50.9246 21.6 52.0126 21.976 52.7086 22.728C53.4126 23.48 53.7646 24.512 53.7646 25.824C53.7646 27.112 53.4126 28.132 52.7086 28.884C52.0126 29.628 50.9246 30 49.4446 30H46.8646ZM47.8726 29.16H49.4206C50.2366 29.16 50.8846 29.028 51.3646 28.764C51.8526 28.492 52.2006 28.108 52.4086 27.612C52.6166 27.108 52.7206 26.512 52.7206 25.824C52.7206 25.12 52.6166 24.516 52.4086 24.012C52.2006 23.508 51.8526 23.12 51.3646 22.848C50.8846 22.576 50.2366 22.44 49.4206 22.44H47.8726V29.16ZM57.836 30.144C57.268 30.144 56.764 30.016 56.324 29.76C55.884 29.496 55.536 29.132 55.28 28.668C55.032 28.204 54.908 27.656 54.908 27.024C54.908 26.4 55.032 25.856 55.28 25.392C55.528 24.92 55.872 24.556 56.312 24.3C56.76 24.036 57.276 23.904 57.86 23.904C58.436 23.904 58.932 24.036 59.348 24.3C59.772 24.556 60.096 24.896 60.32 25.32C60.544 25.744 60.656 26.2 60.656 26.688C60.656 26.776 60.652 26.864 60.644 26.952C60.644 27.04 60.644 27.14 60.644 27.252H55.904C55.928 27.708 56.032 28.088 56.216 28.392C56.408 28.688 56.644 28.912 56.924 29.064C57.212 29.216 57.516 29.292 57.836 29.292C58.252 29.292 58.6 29.196 58.88 29.004C59.16 28.812 59.364 28.552 59.492 28.224H60.488C60.328 28.776 60.02 29.236 59.564 29.604C59.116 29.964 58.54 30.144 57.836 30.144ZM57.836 24.756C57.356 24.756 56.928 24.904 56.552 25.2C56.184 25.488 55.972 25.912 55.916 26.472H59.66C59.636 25.936 59.452 25.516 59.108 25.212C58.764 24.908 58.34 24.756 57.836 24.756ZM64.1448 30C63.6008 30 63.1728 29.868 62.8608 29.604C62.5488 29.34 62.3928 28.864 62.3928 28.176V24.9H61.3608V24.048H62.3928L62.5248 22.62H63.4008V24.048H65.1528V24.9H63.4008V28.176C63.4008 28.552 63.4768 28.808 63.6288 28.944C63.7808 29.072 64.0488 29.136 64.4328 29.136H65.0568V30H64.1448ZM68.4135 30.144C67.9175 30.144 67.5055 30.06 67.1775 29.892C66.8495 29.724 66.6055 29.5 66.4455 29.22C66.2855 28.94 66.2055 28.636 66.2055 28.308C66.2055 27.7 66.4375 27.232 66.9015 26.904C67.3655 26.576 67.9975 26.412 68.7975 26.412H70.4055V26.34C70.4055 25.82 70.2695 25.428 69.9975 25.164C69.7255 24.892 69.3615 24.756 68.9055 24.756C68.5135 24.756 68.1735 24.856 67.8855 25.056C67.6055 25.248 67.4295 25.532 67.3575 25.908H66.3255C66.3655 25.476 66.5095 25.112 66.7575 24.816C67.0135 24.52 67.3295 24.296 67.7055 24.144C68.0815 23.984 68.4815 23.904 68.9055 23.904C69.7375 23.904 70.3615 24.128 70.7775 24.576C71.2015 25.016 71.4135 25.604 71.4135 26.34V30H70.5135L70.4535 28.932C70.2855 29.268 70.0375 29.556 69.7095 29.796C69.3895 30.028 68.9575 30.144 68.4135 30.144ZM68.5695 29.292C68.9535 29.292 69.2815 29.192 69.5535 28.992C69.8335 28.792 70.0455 28.532 70.1895 28.212C70.3335 27.892 70.4055 27.556 70.4055 27.204V27.192H68.8815C68.2895 27.192 67.8695 27.296 67.6215 27.504C67.3815 27.704 67.2615 27.956 67.2615 28.26C67.2615 28.572 67.3735 28.824 67.5975 29.016C67.8295 29.2 68.1535 29.292 68.5695 29.292ZM73.5377 22.728C73.3377 22.728 73.1697 22.664 73.0337 22.536C72.9057 22.4 72.8417 22.232 72.8417 22.032C72.8417 21.84 72.9057 21.68 73.0337 21.552C73.1697 21.424 73.3377 21.36 73.5377 21.36C73.7297 21.36 73.8937 21.424 74.0297 21.552C74.1657 21.68 74.2337 21.84 74.2337 22.032C74.2337 22.232 74.1657 22.4 74.0297 22.536C73.8937 22.664 73.7297 22.728 73.5377 22.728ZM73.0337 30V24.048H74.0417V30H73.0337ZM75.7968 30V21.36H76.8048V30H75.7968ZM80.7369 30.144C80.0249 30.144 79.4329 29.964 78.9609 29.604C78.4889 29.244 78.2129 28.756 78.1329 28.14H79.1649C79.2289 28.452 79.3929 28.724 79.6569 28.956C79.9289 29.18 80.2929 29.292 80.7489 29.292C81.1729 29.292 81.4849 29.204 81.6849 29.028C81.8849 28.844 81.9849 28.628 81.9849 28.38C81.9849 28.02 81.8529 27.78 81.5889 27.66C81.3329 27.54 80.9689 27.432 80.4969 27.336C80.1769 27.272 79.8569 27.18 79.5369 27.06C79.2169 26.94 78.9489 26.772 78.7329 26.556C78.5169 26.332 78.4089 26.04 78.4089 25.68C78.4089 25.16 78.6009 24.736 78.9849 24.408C79.3769 24.072 79.9049 23.904 80.5689 23.904C81.2009 23.904 81.7169 24.064 82.1169 24.384C82.5249 24.696 82.7609 25.144 82.8249 25.728H81.8289C81.7889 25.424 81.6569 25.188 81.4329 25.02C81.2169 24.844 80.9249 24.756 80.5569 24.756C80.1969 24.756 79.9169 24.832 79.7169 24.984C79.5249 25.136 79.4289 25.336 79.4289 25.584C79.4289 25.824 79.5529 26.012 79.8009 26.148C80.0569 26.284 80.4009 26.4 80.8329 26.496C81.2009 26.576 81.5489 26.676 81.8769 26.796C82.2129 26.908 82.4849 27.08 82.6929 27.312C82.9089 27.536 83.0169 27.864 83.0169 28.296C83.0249 28.832 82.8209 29.276 82.4049 29.628C81.9969 29.972 81.4409 30.144 80.7369 30.144Z" fill="white"/>
</g>
<defs>
<clipPath id="clip0_522_1850">
<rect width="357" height="187" rx="10" fill="white"/>
</clipPath>
</defs>
</svg>
