<svg width="375" height="234" viewBox="0 0 375 234" fill="none" xmlns="http://www.w3.org/2000/svg">
<path d="M77.5 170.5C25 170.5 -65.5 198.5 -65.5 198.5L-167 -80L393.5 -50L388.5 233.5C388.5 233.5 354.5 170.5 305.5 170.5C256.5 170.5 256.5 220 194.5 218.5C132.5 217 130 170.5 77.5 170.5Z" fill="#2491CB" fill-opacity="0.05"/>
<path d="M149 170.5C201.5 170.5 256 218 303 215.5C350 213 393.5 162 393.5 162V-80L-167 -50L-162 233.5C-162 233.5 -128 170.5 -79 170.5C-30 170.5 -30 220 32 218.5C94 217 96.5 170.5 149 170.5Z" fill="#2491CB" fill-opacity="0.05"/>
</svg>
