<svg width="46" height="46" viewBox="0 0 46 46" fill="none" xmlns="http://www.w3.org/2000/svg">
<mask id="mask0_728_3582" style="mask-type:alpha" maskUnits="userSpaceOnUse" x="0" y="0" width="46" height="46">
<rect width="46" height="46" fill="#C4C4C4"/>
</mask>
<g mask="url(#mask0_728_3582)">
</g>
<g clip-path="url(#clip0_728_3582)">
<path d="M12.3332 9.78369C12.3332 9.78369 9.76255 12.493 7.65055 19.5064C7.57501 19.7462 7.67724 20.0062 7.89589 20.1304C10.0611 21.3294 12.6038 21.652 14.9999 21.0317L12.3332 9.78369Z" fill="#E8EDFC"/>
<path d="M33.6667 9.78369C33.6667 9.78369 36.2373 12.493 38.3493 19.5064C38.4249 19.7462 38.3226 20.0062 38.104 20.1304C35.9388 21.3294 33.3961 21.652 31 21.0317L33.6667 9.78369Z" fill="#E8EDFC"/>
<path d="M38.104 20.1306C35.9397 21.3323 33.3959 21.655 31 21.0319L31.4853 18.9839H31.5387C33.6988 19.2927 35.8997 18.8562 37.7787 17.7466C37.9707 18.2799 38.1627 18.8826 38.3493 19.4959C38.4307 19.7389 38.3276 20.0054 38.104 20.1306Z" fill="#CAD9FC"/>
<path d="M14.9999 21.032C12.604 21.6551 10.0602 21.3324 7.89589 20.1307C7.67724 20.0065 7.57501 19.7465 7.65055 19.5067C7.83722 18.8933 8.02922 18.3067 8.22122 17.7573C10.1016 18.8682 12.3046 19.3046 14.4666 18.9947H14.5199L14.9999 21.032Z" fill="#CAD9FC"/>
<path d="M31.0003 21.0319L31.5336 36.4399C31.5413 36.6483 31.4267 36.8421 31.2403 36.9359C29.1923 37.9599 27.0643 38.4665 23.0003 38.4665H22.2003C18.6483 38.4025 16.6696 37.8959 14.771 36.9412C14.5786 36.8498 14.4591 36.6527 14.467 36.4399L15.0003 21.0319C15.0003 21.0319 12.867 13.1599 12.3336 9.78387C13.5497 9.15619 14.8057 8.60923 16.0936 8.14654L16.6856 7.94387C17.1824 7.77863 17.6881 7.64152 18.2003 7.5332C18.2003 7.5332 18.6643 11.2665 22.2003 11.7465C22.4655 11.7813 22.7328 11.7991 23.0003 11.7999C26.451 11.7999 27.459 9.01054 27.715 7.94387C27.8003 7.68787 27.8003 7.5332 27.8003 7.5332C28.5248 7.68775 29.2377 7.89269 29.9336 8.14654C31.2124 8.61032 32.4595 9.15726 33.667 9.78387C33.1336 13.1599 31.0003 21.0319 31.0003 21.0319Z" fill="#E8EDFC"/>
<path d="M33.6665 9.78387C32.4591 9.15726 31.212 8.61032 29.9332 8.14654C29.2372 7.89269 28.5244 7.68775 27.7999 7.5332C27.7999 7.5332 27.7999 7.68787 27.7146 7.94387L28.3332 8.14654C29.612 8.61032 30.8591 9.15726 32.0666 9.78387C31.5332 13.1599 29.3999 21.0319 29.3999 21.0319L29.9332 36.4399C29.9409 36.6483 29.8263 36.8421 29.6399 36.9359C27.7359 37.8959 25.7466 38.3972 22.1732 38.4612H22.9999C27.0639 38.4612 29.1919 37.9279 31.2292 36.9305C31.4179 36.8407 31.5368 36.6489 31.5332 36.4399L30.9999 21.0319C30.9999 21.0319 33.1332 13.1599 33.6665 9.78387Z" fill="#CAD9FC"/>
<path d="M27.7998 7.5332C27.7998 7.5332 27.2665 11.7999 22.9998 11.7999C18.7332 11.7999 18.1998 7.5332 18.1998 7.5332H27.7998Z" fill="#7FACFA"/>
<path d="M29.9335 8.14654C29.8274 9.56856 29.2428 10.9127 28.2748 11.9599C28.2055 12.0345 28.1362 12.1039 28.0615 12.1732C26.8422 13.3322 25.2155 13.9644 23.5335 13.9332H22.4668C20.7849 13.9644 19.1582 13.3322 17.9388 12.1732C17.8642 12.1039 17.7948 12.0345 17.7255 11.9599C16.7673 10.909 16.1922 9.56525 16.0935 8.14654C16.7808 7.89387 17.4847 7.68894 18.2002 7.5332C18.2002 7.5332 18.7335 11.7999 23.0002 11.7999C27.2668 11.7999 27.8002 7.5332 27.8002 7.5332C28.5247 7.68775 29.2375 7.89269 29.9335 8.14654Z" fill="#CAD9FC"/>
<path d="M15 21.3091L14.4667 36.4397C14.459 36.6482 14.5736 36.842 14.76 36.9357C17.464 38.2904 20.0613 38.4664 23 38.4664H23.8C21.1867 38.4291 18.8187 38.1731 16.3707 36.9411C16.1783 36.8496 16.0588 36.6526 16.0667 36.4397L16.6 21.0317C16.0755 21.1695 15.5403 21.2623 15 21.3091Z" fill="white"/>
<path d="M7.89583 20.1305C9.57448 21.0566 11.4891 21.4666 13.3998 21.3092C12.0376 21.1913 10.7151 20.7898 9.51716 20.1305C9.29851 20.0064 9.19629 19.7464 9.27183 19.5065C9.43716 18.9732 9.68249 18.2159 9.84249 17.7572C11.7252 12.2585 13.9332 9.73054 13.9332 9.78387C15.7915 8.80132 17.7612 8.04568 19.7998 7.5332H18.1998C16.1612 8.04568 14.1915 8.80132 12.3332 9.78387C12.3332 9.73054 10.1252 12.2585 8.22116 17.7839C8.06116 18.2425 7.81583 18.9892 7.65049 19.5332C7.58874 19.7648 7.6891 20.0092 7.89583 20.1305Z" fill="white"/>
<path d="M10.5255 13.6132L9.57617 13.1332C10.2135 11.7987 11.0085 10.5453 11.9442 9.3999L12.7228 10.1359C11.86 11.2073 11.1227 12.374 10.5255 13.6132Z" fill="white"/>
<path d="M11.0966 12.0452C10.802 12.0452 10.5632 11.8064 10.5632 11.5119C10.5632 11.2173 10.802 10.9785 11.0966 10.9785C11.3911 10.9785 11.6299 11.2173 11.6299 11.5119C11.6299 11.8064 11.3911 12.0452 11.0966 12.0452Z" fill="#006A55"/>
<path d="M7.22459 20.3333C8.82147 21.3391 10.6707 21.8717 12.5579 21.8693C13.1982 21.8742 13.8374 21.8189 14.4673 21.704L13.9339 36.76C13.9264 36.9642 14.0362 37.1548 14.2166 37.2507C16.2646 38.3333 18.4513 39 23.0006 39C27.5499 39 29.7366 38.3333 31.7846 37.2507C31.965 37.1548 32.0748 36.9642 32.0673 36.76L31.5339 21.704C32.1512 21.8202 32.7778 21.8791 33.4059 21.88C35.2931 21.8823 37.1424 21.3498 38.7393 20.344C38.9254 20.2119 39.0068 19.9761 38.9419 19.7573C36.8086 12.408 34.1419 9.53333 34.0193 9.416C33.7899 9.13333 29.4326 7.176 27.8593 7C27.6619 7 18.2593 7 18.1419 7C16.7926 7.13867 13.5553 8.52533 12.0833 9.29867C11.8899 9.40245 11.7798 9.61409 11.8059 9.832C12.1473 11.992 13.1179 15.8907 13.7899 18.4987C12.0919 18.6253 10.3922 18.2743 8.88326 17.4853C9.3502 16.1619 9.89881 14.8688 10.5259 13.6133C10.6584 13.3525 10.5561 13.0337 10.2966 12.8987C10.1701 12.8337 10.0229 12.822 9.88772 12.866C9.75252 12.9101 9.64052 13.0063 9.57659 13.1333C8.52767 15.2594 7.67437 17.4766 7.02726 19.7573C6.96621 19.9717 7.04492 20.2014 7.22459 20.3333ZM33.9766 11.064C35.2987 13.0697 36.358 15.2367 37.1286 17.512C35.6168 18.3042 33.9134 18.6571 32.2113 18.5307C32.7766 16.3547 33.5393 13.2773 33.9766 11.064ZM31.6619 20.664C31.7313 20.392 31.8273 20.0293 31.9393 19.5973C33.8501 19.7736 35.7717 19.4037 37.4806 18.5307C37.6033 18.8987 37.7206 19.272 37.8379 19.6667C35.957 20.7051 33.7707 21.0487 31.6619 20.6373V20.664ZM23.0006 12.3333C26.6806 12.3333 27.8646 9.43733 28.2059 8.17867C28.5739 8.26933 28.9526 8.38667 29.3259 8.50933C28.9385 11.3855 26.4344 13.5 23.5339 13.4H22.4673C19.5651 13.505 17.058 11.3881 16.6753 8.50933C17.0486 8.38667 17.4273 8.26933 17.7953 8.17867C18.1366 9.43733 19.3206 12.3333 23.0006 12.3333ZM18.8619 8.06667H27.1393C26.6943 9.98055 24.9649 11.3177 23.0006 11.2667C21.0356 11.3198 19.3051 9.98174 18.8619 8.06667ZM15.6619 8.87733C16.217 12.178 19.1216 14.5636 22.4673 14.4667H23.5339C26.8832 14.571 29.7935 12.1826 30.3446 8.87733C31.5286 9.33067 32.5633 9.82667 33.0753 10.0827C32.4619 13.592 30.4673 20.952 30.4673 20.8933C30.4406 21.016 30.4193 20.0613 30.9739 36.4613C29.1286 37.4 27.1339 37.9333 23.0006 37.9333C18.8673 37.9333 16.8726 37.4 15.0006 36.4613C15.5606 19.928 15.5339 21.0213 15.5339 20.904C15.3579 20.2053 13.5606 13.6293 12.9419 10.0827C13.4379 9.82667 14.4673 9.33067 15.6566 8.87733H15.6619ZM14.0619 19.576C14.1739 20.0027 14.2699 20.36 14.3393 20.6427C12.2315 21.0457 10.0491 20.7005 8.16859 19.6667C8.28059 19.288 8.39793 18.9093 8.52593 18.536C10.2359 19.3989 12.1554 19.7595 14.0619 19.576Z" fill="#006A55"/>
</g>
<defs>
<clipPath id="clip0_728_3582">
<rect width="32" height="32" fill="white" transform="translate(7 7)"/>
</clipPath>
</defs>
</svg>
