<svg width="24" height="24" viewBox="0 0 24 24" fill="none" xmlns="http://www.w3.org/2000/svg">
<path d="M16.49 5.2901C16.49 5.2901 21 7.9301 21 12.9001C21 14.6801 20.4721 16.4202 19.4832 17.9002C18.4943 19.3803 17.0887 20.5338 15.4441 21.215C13.7996 21.8962 11.99 22.0744 10.2442 21.7272C8.49835 21.3799 6.8947 20.5227 5.63603 19.2641C4.37735 18.0054 3.52019 16.4017 3.17292 14.6559C2.82566 12.9101 3.00388 11.1005 3.68507 9.45595C4.36626 7.81141 5.51982 6.4058 6.99986 5.41687C8.4799 4.42794 10.22 3.9001 12 3.9001M12 3.9001L8.38 2.1001M12 3.9001L9.15 6.8701M10.38 10.4001H13.8L11.09 15.4601" stroke="#1C1C1E" stroke-linecap="round" stroke-linejoin="round"/>
</svg>
