<svg width="24" height="24" viewBox="0 0 24 24" fill="none" xmlns="http://www.w3.org/2000/svg">
<path d="M18.16 13.82H21V4.44C21.0001 4.06492 20.8539 3.70458 20.5925 3.43565C20.331 3.16672 19.9749 3.01042 19.6 3C19.4109 3 19.2236 3.03725 19.0489 3.10961C18.8742 3.18198 18.7155 3.28805 18.5818 3.42177C18.448 3.55548 18.342 3.71423 18.2696 3.88894C18.1972 4.06364 18.16 4.2509 18.16 4.44V13.82ZM18.16 13.82L18.21 13.94L19.61 17.28L21.05 13.82M5.95 6.6H12.95M5.95 9.85H12.95M5.95 13.1H10.37M4.95 3H13.95C15.0546 3 15.95 3.89543 15.95 5V19C15.95 20.1046 15.0546 21 13.95 21H4.95C3.84543 21 2.95 20.1046 2.95 19V5C2.95 3.89543 3.84543 3 4.95 3Z" stroke="#1C1C1E" stroke-linecap="round" stroke-linejoin="round"/>
</svg>
